<mxfile host="Electron" modified="2024-07-05T15:10:13.849Z" agent="Mozilla/5.0 (Windows NT 10.0; Win64; x64) AppleWebKit/537.36 (KHTML, like Gecko) draw.io/24.2.5 Chrome/120.0.6099.109 Electron/28.1.0 Safari/537.36" etag="gxOBr40gPhfjGSEZ1hx7" version="24.2.5" type="device">
  <diagram name="第 1 页" id="9s3G5271DcnVHQR0v0yI">
    <mxGraphModel dx="1098" dy="1088" grid="1" gridSize="10" guides="1" tooltips="1" connect="1" arrows="1" fold="1" page="1" pageScale="1" pageWidth="827" pageHeight="1169" math="0" shadow="0">
      <root>
        <mxCell id="0" />
        <mxCell id="1" parent="0" />
        <mxCell id="27DnAXOXeM8RpCsdDZRd-1" value="" style="group" parent="1" vertex="1" connectable="0">
          <mxGeometry x="124.5" y="4" width="569" height="408" as="geometry" />
        </mxCell>
        <mxCell id="3o8MFVhJdzVfM-e3ODTA-28" value="Overall Structure" style="text;html=1;align=center;verticalAlign=middle;resizable=0;points=[];autosize=1;strokeColor=none;fillColor=none;fontSize=22;fontStyle=1" parent="27DnAXOXeM8RpCsdDZRd-1" vertex="1">
          <mxGeometry x="189.5" width="190" height="40" as="geometry" />
        </mxCell>
        <mxCell id="3o8MFVhJdzVfM-e3ODTA-17" style="edgeStyle=orthogonalEdgeStyle;rounded=0;orthogonalLoop=1;jettySize=auto;html=1;entryX=1;entryY=0.5;entryDx=0;entryDy=0;" parent="27DnAXOXeM8RpCsdDZRd-1" source="3o8MFVhJdzVfM-e3ODTA-4" target="3o8MFVhJdzVfM-e3ODTA-9" edge="1">
          <mxGeometry relative="1" as="geometry" />
        </mxCell>
        <mxCell id="3o8MFVhJdzVfM-e3ODTA-18" style="edgeStyle=orthogonalEdgeStyle;rounded=0;orthogonalLoop=1;jettySize=auto;html=1;entryX=1;entryY=0.5;entryDx=0;entryDy=0;" parent="27DnAXOXeM8RpCsdDZRd-1" source="3o8MFVhJdzVfM-e3ODTA-4" target="3o8MFVhJdzVfM-e3ODTA-5" edge="1">
          <mxGeometry relative="1" as="geometry" />
        </mxCell>
        <mxCell id="3o8MFVhJdzVfM-e3ODTA-19" style="edgeStyle=orthogonalEdgeStyle;rounded=0;orthogonalLoop=1;jettySize=auto;html=1;entryX=1;entryY=0.5;entryDx=0;entryDy=0;" parent="27DnAXOXeM8RpCsdDZRd-1" source="3o8MFVhJdzVfM-e3ODTA-4" target="3o8MFVhJdzVfM-e3ODTA-13" edge="1">
          <mxGeometry relative="1" as="geometry" />
        </mxCell>
        <mxCell id="3o8MFVhJdzVfM-e3ODTA-20" style="edgeStyle=orthogonalEdgeStyle;rounded=0;orthogonalLoop=1;jettySize=auto;html=1;entryX=1;entryY=0.75;entryDx=0;entryDy=0;" parent="27DnAXOXeM8RpCsdDZRd-1" source="3o8MFVhJdzVfM-e3ODTA-4" target="3o8MFVhJdzVfM-e3ODTA-16" edge="1">
          <mxGeometry relative="1" as="geometry" />
        </mxCell>
        <mxCell id="3o8MFVhJdzVfM-e3ODTA-21" style="edgeStyle=orthogonalEdgeStyle;rounded=0;orthogonalLoop=1;jettySize=auto;html=1;entryX=1;entryY=0.5;entryDx=0;entryDy=0;" parent="27DnAXOXeM8RpCsdDZRd-1" source="3o8MFVhJdzVfM-e3ODTA-4" target="3o8MFVhJdzVfM-e3ODTA-15" edge="1">
          <mxGeometry relative="1" as="geometry" />
        </mxCell>
        <mxCell id="3o8MFVhJdzVfM-e3ODTA-4" value="&lt;font style=&quot;font-size: 12px;&quot;&gt;API gateway&lt;/font&gt;&lt;div&gt;&lt;font style=&quot;font-size: 12px;&quot;&gt;（Nginx）&lt;/font&gt;&lt;/div&gt;" style="rounded=0;whiteSpace=wrap;html=1;direction=west;flipH=0;" parent="27DnAXOXeM8RpCsdDZRd-1" vertex="1">
          <mxGeometry x="232" y="202" width="90" height="30" as="geometry" />
        </mxCell>
        <mxCell id="3o8MFVhJdzVfM-e3ODTA-12" value="" style="edgeStyle=orthogonalEdgeStyle;rounded=0;orthogonalLoop=1;jettySize=auto;html=1;entryX=0.25;entryY=1;entryDx=0;entryDy=0;exitX=0.25;exitY=0;exitDx=0;exitDy=0;" parent="27DnAXOXeM8RpCsdDZRd-1" source="3o8MFVhJdzVfM-e3ODTA-5" target="3o8MFVhJdzVfM-e3ODTA-11" edge="1">
          <mxGeometry relative="1" as="geometry">
            <Array as="points">
              <mxPoint x="533" y="186" />
              <mxPoint x="533" y="186" />
            </Array>
          </mxGeometry>
        </mxCell>
        <mxCell id="27DnAXOXeM8RpCsdDZRd-15" style="edgeStyle=orthogonalEdgeStyle;rounded=0;orthogonalLoop=1;jettySize=auto;html=1;exitX=0.703;exitY=-0.015;exitDx=0;exitDy=0;entryX=0.5;entryY=1;entryDx=0;entryDy=0;exitPerimeter=0;" parent="27DnAXOXeM8RpCsdDZRd-1" source="3o8MFVhJdzVfM-e3ODTA-5" target="3o8MFVhJdzVfM-e3ODTA-9" edge="1">
          <mxGeometry relative="1" as="geometry" />
        </mxCell>
        <mxCell id="3o8MFVhJdzVfM-e3ODTA-5" value="ListeningService.Admin" style="whiteSpace=wrap;html=1;rounded=0;fontSize=12;direction=west;flipH=0;" parent="27DnAXOXeM8RpCsdDZRd-1" vertex="1">
          <mxGeometry x="424" y="137" width="145" height="30" as="geometry" />
        </mxCell>
        <mxCell id="3o8MFVhJdzVfM-e3ODTA-9" value="FileService" style="whiteSpace=wrap;html=1;rounded=0;fontSize=12;direction=west;flipH=0;" parent="27DnAXOXeM8RpCsdDZRd-1" vertex="1">
          <mxGeometry x="424" y="201" width="86" height="30" as="geometry" />
        </mxCell>
        <mxCell id="3o8MFVhJdzVfM-e3ODTA-11" value="MediaEncoderService" style="whiteSpace=wrap;html=1;rounded=0;fontSize=12;direction=west;flipH=0;" parent="27DnAXOXeM8RpCsdDZRd-1" vertex="1">
          <mxGeometry x="424" y="260" width="145" height="30" as="geometry" />
        </mxCell>
        <mxCell id="3o8MFVhJdzVfM-e3ODTA-13" value="ListeningService.Main" style="whiteSpace=wrap;html=1;rounded=0;fontSize=12;direction=west;flipH=0;" parent="27DnAXOXeM8RpCsdDZRd-1" vertex="1">
          <mxGeometry x="424" y="76" width="145" height="30" as="geometry" />
        </mxCell>
        <mxCell id="3o8MFVhJdzVfM-e3ODTA-15" value="SearchService" style="whiteSpace=wrap;html=1;rounded=0;fontSize=12;direction=west;flipH=0;" parent="27DnAXOXeM8RpCsdDZRd-1" vertex="1">
          <mxGeometry x="424" y="378" width="145" height="30" as="geometry" />
        </mxCell>
        <mxCell id="3o8MFVhJdzVfM-e3ODTA-16" value="IdentityService" style="whiteSpace=wrap;html=1;rounded=0;fontSize=12;direction=west;flipH=0;" parent="27DnAXOXeM8RpCsdDZRd-1" vertex="1">
          <mxGeometry x="424" y="318" width="145" height="30" as="geometry" />
        </mxCell>
        <mxCell id="27DnAXOXeM8RpCsdDZRd-16" style="edgeStyle=orthogonalEdgeStyle;rounded=0;orthogonalLoop=1;jettySize=auto;html=1;entryX=1;entryY=0.5;entryDx=0;entryDy=0;" parent="27DnAXOXeM8RpCsdDZRd-1" source="3o8MFVhJdzVfM-e3ODTA-22" target="3o8MFVhJdzVfM-e3ODTA-4" edge="1">
          <mxGeometry relative="1" as="geometry" />
        </mxCell>
        <mxCell id="3o8MFVhJdzVfM-e3ODTA-22" value="ListeningAdminUI" style="whiteSpace=wrap;html=1;rounded=0;fontSize=12;direction=west;flipH=0;" parent="27DnAXOXeM8RpCsdDZRd-1" vertex="1">
          <mxGeometry y="172" width="145" height="30" as="geometry" />
        </mxCell>
        <mxCell id="27DnAXOXeM8RpCsdDZRd-17" style="edgeStyle=orthogonalEdgeStyle;rounded=0;orthogonalLoop=1;jettySize=auto;html=1;exitX=0;exitY=0.5;exitDx=0;exitDy=0;entryX=1;entryY=0.5;entryDx=0;entryDy=0;" parent="27DnAXOXeM8RpCsdDZRd-1" source="3o8MFVhJdzVfM-e3ODTA-23" target="3o8MFVhJdzVfM-e3ODTA-4" edge="1">
          <mxGeometry relative="1" as="geometry" />
        </mxCell>
        <mxCell id="3o8MFVhJdzVfM-e3ODTA-23" value="ListeningMainUI" style="whiteSpace=wrap;html=1;rounded=0;fontSize=12;direction=west;flipH=0;" parent="27DnAXOXeM8RpCsdDZRd-1" vertex="1">
          <mxGeometry y="232" width="145" height="30" as="geometry" />
        </mxCell>
        <mxCell id="27DnAXOXeM8RpCsdDZRd-10" value="" style="group" parent="1" vertex="1" connectable="0">
          <mxGeometry x="121" y="480" width="600" height="680" as="geometry" />
        </mxCell>
        <mxCell id="3o8MFVhJdzVfM-e3ODTA-159" value="" style="group" parent="27DnAXOXeM8RpCsdDZRd-10" vertex="1" connectable="0">
          <mxGeometry y="70" width="600" height="610" as="geometry" />
        </mxCell>
        <mxCell id="3o8MFVhJdzVfM-e3ODTA-109" value="" style="html=1;whiteSpace=wrap;container=0;dashed=1;strokeWidth=3;" parent="3o8MFVhJdzVfM-e3ODTA-159" vertex="1">
          <mxGeometry x="40" y="520" width="480" height="90" as="geometry" />
        </mxCell>
        <mxCell id="3o8MFVhJdzVfM-e3ODTA-110" value="" style="html=1;whiteSpace=wrap;movable=1;resizable=1;rotatable=1;deletable=1;editable=1;locked=0;connectable=1;container=0;dashed=1;strokeWidth=3;" parent="3o8MFVhJdzVfM-e3ODTA-159" vertex="1">
          <mxGeometry x="420" y="40" width="180" height="410" as="geometry" />
        </mxCell>
        <mxCell id="3o8MFVhJdzVfM-e3ODTA-111" value="" style="html=1;whiteSpace=wrap;movable=1;resizable=1;rotatable=1;deletable=1;editable=1;locked=0;connectable=1;container=0;dashed=1;strokeWidth=3;" parent="3o8MFVhJdzVfM-e3ODTA-159" vertex="1">
          <mxGeometry y="40" width="260" height="300" as="geometry" />
        </mxCell>
        <mxCell id="3o8MFVhJdzVfM-e3ODTA-112" value="Entities" style="rounded=0;whiteSpace=wrap;html=1;labelBackgroundColor=none;movable=1;resizable=1;rotatable=1;deletable=1;editable=1;locked=0;connectable=1;container=0;" parent="3o8MFVhJdzVfM-e3ODTA-159" vertex="1">
          <mxGeometry x="160" y="229" width="80" height="30" as="geometry" />
        </mxCell>
        <mxCell id="3o8MFVhJdzVfM-e3ODTA-115" style="edgeStyle=orthogonalEdgeStyle;rounded=0;orthogonalLoop=1;jettySize=auto;html=1;entryX=0;entryY=0.25;entryDx=0;entryDy=0;exitX=0.5;exitY=1;exitDx=0;exitDy=0;movable=1;resizable=1;rotatable=1;deletable=1;editable=1;locked=0;connectable=1;strokeWidth=2;fillColor=#60a917;strokeColor=#2D7600;" parent="3o8MFVhJdzVfM-e3ODTA-159" source="3o8MFVhJdzVfM-e3ODTA-116" target="3o8MFVhJdzVfM-e3ODTA-117" edge="1">
          <mxGeometry relative="1" as="geometry">
            <Array as="points">
              <mxPoint x="70" y="294" />
            </Array>
          </mxGeometry>
        </mxCell>
        <mxCell id="27DnAXOXeM8RpCsdDZRd-5" style="edgeStyle=orthogonalEdgeStyle;rounded=0;orthogonalLoop=1;jettySize=auto;html=1;exitX=0.5;exitY=0;exitDx=0;exitDy=0;entryX=0;entryY=0.25;entryDx=0;entryDy=0;strokeWidth=2;fillColor=#60a917;strokeColor=#2D7600;" parent="3o8MFVhJdzVfM-e3ODTA-159" source="3o8MFVhJdzVfM-e3ODTA-116" target="3o8MFVhJdzVfM-e3ODTA-118" edge="1">
          <mxGeometry relative="1" as="geometry">
            <mxPoint x="125" y="164" as="sourcePoint" />
            <mxPoint x="160" y="164" as="targetPoint" />
          </mxGeometry>
        </mxCell>
        <mxCell id="3o8MFVhJdzVfM-e3ODTA-116" value="DomainService" style="rounded=0;whiteSpace=wrap;html=1;labelBackgroundColor=none;movable=1;resizable=1;rotatable=1;deletable=1;editable=1;locked=0;connectable=1;container=0;" parent="3o8MFVhJdzVfM-e3ODTA-159" vertex="1">
          <mxGeometry x="15" y="189" width="110" height="30" as="geometry" />
        </mxCell>
        <mxCell id="27DnAXOXeM8RpCsdDZRd-9" style="edgeStyle=orthogonalEdgeStyle;rounded=0;orthogonalLoop=1;jettySize=auto;html=1;entryX=0.5;entryY=1;entryDx=0;entryDy=0;fillColor=#60a917;strokeColor=#2D7600;strokeWidth=2;" parent="3o8MFVhJdzVfM-e3ODTA-159" source="3o8MFVhJdzVfM-e3ODTA-117" target="3o8MFVhJdzVfM-e3ODTA-112" edge="1">
          <mxGeometry relative="1" as="geometry" />
        </mxCell>
        <mxCell id="3o8MFVhJdzVfM-e3ODTA-117" value="IRepository" style="rounded=0;whiteSpace=wrap;html=1;labelBackgroundColor=none;movable=1;resizable=1;rotatable=1;deletable=1;editable=1;locked=0;connectable=1;container=0;" parent="3o8MFVhJdzVfM-e3ODTA-159" vertex="1">
          <mxGeometry x="160" y="286" width="80" height="30" as="geometry" />
        </mxCell>
        <mxCell id="3o8MFVhJdzVfM-e3ODTA-118" value="IAService" style="rounded=0;whiteSpace=wrap;html=1;labelBackgroundColor=none;movable=1;resizable=1;rotatable=1;deletable=1;editable=1;locked=0;connectable=1;container=0;" parent="3o8MFVhJdzVfM-e3ODTA-159" vertex="1">
          <mxGeometry x="160" y="92" width="80" height="30" as="geometry" />
        </mxCell>
        <mxCell id="3o8MFVhJdzVfM-e3ODTA-119" value="DbContext" style="rounded=0;whiteSpace=wrap;html=1;labelBackgroundColor=none;movable=1;resizable=1;rotatable=1;deletable=1;editable=1;locked=0;connectable=1;container=0;" parent="3o8MFVhJdzVfM-e3ODTA-159" vertex="1">
          <mxGeometry x="455" y="340" width="120" height="31" as="geometry" />
        </mxCell>
        <mxCell id="3o8MFVhJdzVfM-e3ODTA-120" style="edgeStyle=orthogonalEdgeStyle;rounded=0;orthogonalLoop=1;jettySize=auto;html=1;entryX=1;entryY=0.5;entryDx=0;entryDy=0;strokeWidth=2;fillColor=#008a00;strokeColor=#005700;" parent="3o8MFVhJdzVfM-e3ODTA-159" source="3o8MFVhJdzVfM-e3ODTA-122" target="3o8MFVhJdzVfM-e3ODTA-117" edge="1">
          <mxGeometry relative="1" as="geometry" />
        </mxCell>
        <mxCell id="3o8MFVhJdzVfM-e3ODTA-121" style="edgeStyle=orthogonalEdgeStyle;rounded=0;orthogonalLoop=1;jettySize=auto;html=1;exitX=0.5;exitY=1;exitDx=0;exitDy=0;entryX=0.5;entryY=0;entryDx=0;entryDy=0;strokeWidth=2;fillColor=#008a00;strokeColor=#005700;" parent="3o8MFVhJdzVfM-e3ODTA-159" source="3o8MFVhJdzVfM-e3ODTA-122" target="3o8MFVhJdzVfM-e3ODTA-119" edge="1">
          <mxGeometry relative="1" as="geometry" />
        </mxCell>
        <mxCell id="3o8MFVhJdzVfM-e3ODTA-122" value="RepositoryImp1" style="rounded=0;whiteSpace=wrap;html=1;labelBackgroundColor=none;movable=1;resizable=1;rotatable=1;deletable=1;editable=1;locked=0;connectable=1;container=0;" parent="3o8MFVhJdzVfM-e3ODTA-159" vertex="1">
          <mxGeometry x="455" y="286.5" width="120" height="29" as="geometry" />
        </mxCell>
        <mxCell id="3o8MFVhJdzVfM-e3ODTA-123" style="edgeStyle=orthogonalEdgeStyle;rounded=0;orthogonalLoop=1;jettySize=auto;html=1;exitX=0;exitY=0.5;exitDx=0;exitDy=0;entryX=1;entryY=0.5;entryDx=0;entryDy=0;strokeWidth=2;fillColor=#008a00;strokeColor=#005700;" parent="3o8MFVhJdzVfM-e3ODTA-159" source="3o8MFVhJdzVfM-e3ODTA-124" target="3o8MFVhJdzVfM-e3ODTA-118" edge="1">
          <mxGeometry relative="1" as="geometry" />
        </mxCell>
        <mxCell id="3o8MFVhJdzVfM-e3ODTA-124" value="AServiceImp1" style="rounded=0;whiteSpace=wrap;html=1;labelBackgroundColor=none;movable=1;resizable=1;rotatable=1;deletable=1;editable=1;locked=0;connectable=1;container=0;" parent="3o8MFVhJdzVfM-e3ODTA-159" vertex="1">
          <mxGeometry x="452.5" y="52" width="125" height="30" as="geometry" />
        </mxCell>
        <mxCell id="3o8MFVhJdzVfM-e3ODTA-127" style="edgeStyle=orthogonalEdgeStyle;rounded=0;orthogonalLoop=1;jettySize=auto;html=1;exitX=0;exitY=0.5;exitDx=0;exitDy=0;strokeWidth=2;fillColor=#008a00;strokeColor=#005700;" parent="3o8MFVhJdzVfM-e3ODTA-159" source="3o8MFVhJdzVfM-e3ODTA-128" target="3o8MFVhJdzVfM-e3ODTA-112" edge="1">
          <mxGeometry relative="1" as="geometry" />
        </mxCell>
        <mxCell id="3o8MFVhJdzVfM-e3ODTA-128" value="EntitiesConfig" style="rounded=0;whiteSpace=wrap;html=1;labelBackgroundColor=none;movable=1;resizable=1;rotatable=1;deletable=1;editable=1;locked=0;connectable=1;container=0;" parent="3o8MFVhJdzVfM-e3ODTA-159" vertex="1">
          <mxGeometry x="465" y="229" width="105" height="30" as="geometry" />
        </mxCell>
        <mxCell id="3o8MFVhJdzVfM-e3ODTA-156" style="edgeStyle=orthogonalEdgeStyle;rounded=0;orthogonalLoop=1;jettySize=auto;html=1;exitX=0.5;exitY=0;exitDx=0;exitDy=0;entryX=0;entryY=0.75;entryDx=0;entryDy=0;strokeWidth=2;fillColor=#a20025;strokeColor=#6F0000;" parent="3o8MFVhJdzVfM-e3ODTA-159" source="3o8MFVhJdzVfM-e3ODTA-132" target="3o8MFVhJdzVfM-e3ODTA-118" edge="1">
          <mxGeometry relative="1" as="geometry" />
        </mxCell>
        <mxCell id="3o8MFVhJdzVfM-e3ODTA-132" value="AController" style="rounded=0;whiteSpace=wrap;html=1;labelBackgroundColor=none;movable=1;resizable=1;rotatable=1;deletable=1;editable=1;locked=0;connectable=1;container=0;" parent="3o8MFVhJdzVfM-e3ODTA-159" vertex="1">
          <mxGeometry x="80" y="549.5" width="120" height="31" as="geometry" />
        </mxCell>
        <mxCell id="3o8MFVhJdzVfM-e3ODTA-133" value="Domain" style="text;html=1;align=center;verticalAlign=middle;resizable=0;points=[];autosize=1;strokeColor=none;fillColor=none;fontSize=20;fontStyle=1;container=0;" parent="3o8MFVhJdzVfM-e3ODTA-159" vertex="1">
          <mxGeometry x="85" width="90" height="40" as="geometry" />
        </mxCell>
        <mxCell id="3o8MFVhJdzVfM-e3ODTA-134" value="Infrastructure" style="text;html=1;align=center;verticalAlign=middle;resizable=0;points=[];autosize=1;strokeColor=none;fillColor=none;fontSize=20;fontStyle=1;container=0;" parent="3o8MFVhJdzVfM-e3ODTA-159" vertex="1">
          <mxGeometry x="437.5" width="140" height="40" as="geometry" />
        </mxCell>
        <mxCell id="YXTdfE1-RLNN_1qjRw4v-1" style="edgeStyle=orthogonalEdgeStyle;rounded=0;orthogonalLoop=1;jettySize=auto;html=1;entryX=0.25;entryY=1;entryDx=0;entryDy=0;strokeWidth=3;" parent="3o8MFVhJdzVfM-e3ODTA-159" source="3o8MFVhJdzVfM-e3ODTA-135" target="3o8MFVhJdzVfM-e3ODTA-110" edge="1">
          <mxGeometry relative="1" as="geometry" />
        </mxCell>
        <mxCell id="YXTdfE1-RLNN_1qjRw4v-3" style="edgeStyle=orthogonalEdgeStyle;rounded=0;orthogonalLoop=1;jettySize=auto;html=1;entryX=0.75;entryY=1;entryDx=0;entryDy=0;strokeWidth=3;" parent="3o8MFVhJdzVfM-e3ODTA-159" source="3o8MFVhJdzVfM-e3ODTA-135" target="3o8MFVhJdzVfM-e3ODTA-111" edge="1">
          <mxGeometry relative="1" as="geometry">
            <Array as="points">
              <mxPoint x="195" y="500" />
            </Array>
          </mxGeometry>
        </mxCell>
        <mxCell id="3o8MFVhJdzVfM-e3ODTA-135" value="WebAPI" style="text;html=1;align=center;verticalAlign=middle;resizable=0;points=[];autosize=1;strokeColor=none;fillColor=none;fontSize=20;fontStyle=1;container=0;" parent="3o8MFVhJdzVfM-e3ODTA-159" vertex="1">
          <mxGeometry x="245" y="480" width="100" height="40" as="geometry" />
        </mxCell>
        <mxCell id="3o8MFVhJdzVfM-e3ODTA-138" style="edgeStyle=orthogonalEdgeStyle;rounded=0;orthogonalLoop=1;jettySize=auto;html=1;exitX=0;exitY=0.5;exitDx=0;exitDy=0;entryX=1;entryY=0.5;entryDx=0;entryDy=0;strokeWidth=2;fillColor=#008a00;strokeColor=#005700;" parent="3o8MFVhJdzVfM-e3ODTA-159" source="3o8MFVhJdzVfM-e3ODTA-136" target="3o8MFVhJdzVfM-e3ODTA-118" edge="1">
          <mxGeometry relative="1" as="geometry">
            <mxPoint x="240" y="101.16129032258073" as="targetPoint" />
          </mxGeometry>
        </mxCell>
        <mxCell id="3o8MFVhJdzVfM-e3ODTA-136" value="AServiceImp2" style="rounded=0;whiteSpace=wrap;html=1;labelBackgroundColor=none;movable=1;resizable=1;rotatable=1;deletable=1;editable=1;locked=0;connectable=1;container=0;" parent="3o8MFVhJdzVfM-e3ODTA-159" vertex="1">
          <mxGeometry x="452.5" y="92" width="125" height="30" as="geometry" />
        </mxCell>
        <mxCell id="3o8MFVhJdzVfM-e3ODTA-139" style="edgeStyle=orthogonalEdgeStyle;rounded=0;orthogonalLoop=1;jettySize=auto;html=1;exitX=0;exitY=0.5;exitDx=0;exitDy=0;entryX=1;entryY=0.5;entryDx=0;entryDy=0;strokeWidth=2;fillColor=#008a00;strokeColor=#005700;" parent="3o8MFVhJdzVfM-e3ODTA-159" source="3o8MFVhJdzVfM-e3ODTA-137" target="3o8MFVhJdzVfM-e3ODTA-118" edge="1">
          <mxGeometry relative="1" as="geometry" />
        </mxCell>
        <mxCell id="3o8MFVhJdzVfM-e3ODTA-137" value="AServiceImp3" style="rounded=0;whiteSpace=wrap;html=1;labelBackgroundColor=none;movable=1;resizable=1;rotatable=1;deletable=1;editable=1;locked=0;connectable=1;container=0;" parent="3o8MFVhJdzVfM-e3ODTA-159" vertex="1">
          <mxGeometry x="452.5" y="132" width="125" height="30" as="geometry" />
        </mxCell>
        <mxCell id="3o8MFVhJdzVfM-e3ODTA-144" value="&lt;div&gt;....&lt;/div&gt;&lt;div&gt;....&lt;/div&gt;&lt;div&gt;INService&lt;/div&gt;" style="rounded=0;whiteSpace=wrap;html=1;labelBackgroundColor=none;movable=1;resizable=1;rotatable=1;deletable=1;editable=1;locked=0;connectable=1;container=0;dashed=1;" parent="3o8MFVhJdzVfM-e3ODTA-159" vertex="1">
          <mxGeometry x="160" y="131" width="80" height="54" as="geometry" />
        </mxCell>
        <mxCell id="3o8MFVhJdzVfM-e3ODTA-147" value="......&lt;div&gt;......&lt;div&gt;nController&lt;/div&gt;&lt;/div&gt;" style="rounded=0;whiteSpace=wrap;html=1;labelBackgroundColor=none;movable=1;resizable=1;rotatable=1;deletable=1;editable=1;locked=0;connectable=1;container=0;dashed=1;" parent="3o8MFVhJdzVfM-e3ODTA-159" vertex="1">
          <mxGeometry x="238" y="539.75" width="120" height="50.5" as="geometry" />
        </mxCell>
        <mxCell id="3o8MFVhJdzVfM-e3ODTA-148" value="ServiceExtensions&lt;div&gt;（The Related services DI）&lt;/div&gt;" style="rounded=0;whiteSpace=wrap;html=1;labelBackgroundColor=none;movable=1;resizable=1;rotatable=1;deletable=1;editable=1;locked=0;connectable=1;container=0;" parent="3o8MFVhJdzVfM-e3ODTA-159" vertex="1">
          <mxGeometry x="430" y="389" width="160" height="41" as="geometry" />
        </mxCell>
        <mxCell id="3o8MFVhJdzVfM-e3ODTA-149" value="Program" style="rounded=0;whiteSpace=wrap;html=1;labelBackgroundColor=none;movable=1;resizable=1;rotatable=1;deletable=1;editable=1;locked=0;connectable=1;container=0;" parent="3o8MFVhJdzVfM-e3ODTA-159" vertex="1">
          <mxGeometry x="380" y="549.5" width="94" height="31" as="geometry" />
        </mxCell>
        <mxCell id="3o8MFVhJdzVfM-e3ODTA-152" style="edgeStyle=orthogonalEdgeStyle;rounded=0;orthogonalLoop=1;jettySize=auto;html=1;exitX=1;exitY=0.5;exitDx=0;exitDy=0;entryX=0.437;entryY=0.996;entryDx=0;entryDy=0;entryPerimeter=0;strokeWidth=2;fillColor=#a20025;strokeColor=#6F0000;" parent="3o8MFVhJdzVfM-e3ODTA-159" source="3o8MFVhJdzVfM-e3ODTA-149" target="3o8MFVhJdzVfM-e3ODTA-148" edge="1">
          <mxGeometry relative="1" as="geometry">
            <Array as="points">
              <mxPoint x="499" y="565" />
              <mxPoint x="499" y="430" />
            </Array>
          </mxGeometry>
        </mxCell>
        <mxCell id="3o8MFVhJdzVfM-e3ODTA-157" value="" style="endArrow=classic;html=1;rounded=0;strokeWidth=2;fillColor=#a20025;strokeColor=#6F0000;" parent="3o8MFVhJdzVfM-e3ODTA-159" edge="1">
          <mxGeometry width="50" height="50" relative="1" as="geometry">
            <mxPoint x="140" y="310" as="sourcePoint" />
            <mxPoint x="160" y="310" as="targetPoint" />
          </mxGeometry>
        </mxCell>
        <mxCell id="3o8MFVhJdzVfM-e3ODTA-158" value="" style="endArrow=classic;html=1;rounded=0;entryX=0.166;entryY=1.012;entryDx=0;entryDy=0;entryPerimeter=0;edgeStyle=orthogonalEdgeStyle;strokeWidth=2;fillColor=#a20025;strokeColor=#6F0000;" parent="3o8MFVhJdzVfM-e3ODTA-159" target="3o8MFVhJdzVfM-e3ODTA-116" edge="1">
          <mxGeometry width="50" height="50" relative="1" as="geometry">
            <mxPoint x="140" y="330" as="sourcePoint" />
            <mxPoint x="170" y="320" as="targetPoint" />
            <Array as="points">
              <mxPoint x="33" y="330" />
            </Array>
          </mxGeometry>
        </mxCell>
        <mxCell id="YXTdfE1-RLNN_1qjRw4v-2" style="edgeStyle=orthogonalEdgeStyle;rounded=0;orthogonalLoop=1;jettySize=auto;html=1;entryX=0.996;entryY=0.683;entryDx=0;entryDy=0;entryPerimeter=0;strokeWidth=3;" parent="3o8MFVhJdzVfM-e3ODTA-159" edge="1">
          <mxGeometry relative="1" as="geometry">
            <mxPoint x="420" y="205" as="sourcePoint" />
            <mxPoint x="258.96000000000004" y="204.9000000000001" as="targetPoint" />
          </mxGeometry>
        </mxCell>
        <mxCell id="3o8MFVhJdzVfM-e3ODTA-161" value="Each microservice consists of these three parts" style="text;html=1;align=center;verticalAlign=middle;resizable=0;points=[];autosize=1;strokeColor=none;fillColor=none;fontSize=22;" parent="27DnAXOXeM8RpCsdDZRd-10" vertex="1">
          <mxGeometry x="59" width="480" height="40" as="geometry" />
        </mxCell>
        <mxCell id="27DnAXOXeM8RpCsdDZRd-21" value="dependency" style="text;html=1;align=center;verticalAlign=middle;resizable=0;points=[];autosize=1;strokeColor=none;fillColor=none;" parent="1" vertex="1">
          <mxGeometry x="20" y="18" width="90" height="30" as="geometry" />
        </mxCell>
        <mxCell id="27DnAXOXeM8RpCsdDZRd-20" value="" style="endArrow=classic;html=1;rounded=0;" parent="1" edge="1">
          <mxGeometry width="50" height="50" relative="1" as="geometry">
            <mxPoint x="30" y="14" as="sourcePoint" />
            <mxPoint x="110" y="14" as="targetPoint" />
          </mxGeometry>
        </mxCell>
      </root>
    </mxGraphModel>
  </diagram>
</mxfile>
